<svg width="26" height="26" viewBox="0 0 26 26" fill="none" xmlns="http://www.w3.org/2000/svg">
<path d="M18.7778 9.28571C18.7778 4.15536 14.5753 0 9.38889 0C4.20243 0 0 4.15536 0 9.28571C0 10.0154 0.0855287 10.7241 0.247024 11.4037C0.763803 13.5784 1.47163 16.0235 0.0993056 17.7879C0 17.9214 -0.0270833 18.1187 0.0315972 18.2929C0.0902778 18.467 0.216667 18.5714 0.361111 18.5714C2.97277 18.5714 5.82818 18.2562 8.42623 18.5224C8.74259 18.5548 9.06372 18.5714 9.38889 18.5714C14.5753 18.5714 18.7778 14.4161 18.7778 9.28571ZM25.9007 25.2165C24.5284 23.4522 25.2374 21.0073 25.7533 18.8325C25.9146 18.1526 26 17.4435 26 16.7143C26 13.2435 24.0702 10.2179 21.2166 8.62432C20.7547 8.36637 20.2222 8.75667 20.2222 9.28571C20.2222 15.4317 15.3608 20.4286 9.38889 20.4286C8.75587 20.4286 8.28619 21.0537 8.62174 21.5905C10.2755 24.236 13.2362 26 16.6111 26C16.9365 26 17.2579 25.9835 17.5745 25.9513C20.1714 25.6872 23.0286 26 25.6389 26C25.7833 26 25.9142 25.8897 25.9684 25.7214C26.0271 25.5531 26 25.3558 25.9007 25.2165Z" fill="#FA9038"/>
</svg>
